<?xml version="1.0" encoding="utf-8"?><svg version="1.1" id="Layer_1" xmlns="http://www.w3.org/2000/svg" xmlns:xlink="http://www.w3.org/1999/xlink" x="0px" y="0px" viewBox="0 0 122.88 65.56" style="enable-background:new 0 0 122.88 65.56" xml:space="preserve"><style type="text/css">.st0{fill-rule:evenodd;clip-rule:evenodd;}</style><g><path class="st0" d="M25.89,26.28c-50.5,15.04,23.46,24.44,38.63,24.31v-7.44l11.21,11.2L64.52,65.56v-6.97 C34.83,59.72-38.93,38.66,25.88,23.65L25.89,26.28L25.89,26.28z"/><path class="st0" d="M100.71,26.9c19.49,5.05,20.66,15.1-2.06,20.71c-5.3,1.31-11.29,2.5-17.86,2.99v6.05 c7.31-0.51,14.1-2.19,20.06-3.63c32.51-7.88,26.12-22.9-0.13-28.61L100.71,26.9L100.71,26.9z"/><path d="M32.34,27.17l9.48-1.18c0.25,1.31,0.67,2.24,1.26,2.78c0.6,0.54,1.32,0.81,2.18,0.81c1.53,0,2.72-0.77,3.58-2.31 c0.62-1.14,1.09-3.54,1.4-7.21c-1.14,1.17-2.31,2.03-3.51,2.57c-1.2,0.55-2.58,0.82-4.16,0.82c-3.07,0-5.66-1.09-7.78-3.27 c-2.11-2.19-3.17-4.95-3.17-8.28c0-2.27,0.53-4.35,1.61-6.22c1.08-1.87,2.56-3.29,4.44-4.24C39.56,0.48,41.93,0,44.78,0 c3.43,0,6.18,0.59,8.25,1.76C55.1,2.94,56.76,4.81,58,7.37c1.24,2.56,1.86,5.94,1.86,10.16c0,6.18-1.3,10.71-3.91,13.59 c-2.6,2.87-6.21,4.31-10.83,4.31c-2.73,0-4.87-0.31-6.45-0.94c-1.57-0.63-2.88-1.56-3.93-2.76C33.7,30.51,32.89,28.99,32.34,27.17 L32.34,27.17z M49.89,11.88c0-1.86-0.47-3.31-1.4-4.36c-0.93-1.05-2.07-1.58-3.41-1.58c-1.27,0-2.31,0.48-3.15,1.43 c-0.84,0.95-1.25,2.38-1.25,4.28c0,1.91,0.43,3.38,1.3,4.4c0.86,1.01,1.95,1.52,3.24,1.52c1.34,0,2.46-0.49,3.35-1.48 C49.44,15.11,49.89,13.71,49.89,11.88L49.89,11.88z"/><path d="M63.83,17.57c0-6.51,1.17-11.07,3.52-13.67C69.7,1.3,73.27,0,78.07,0c2.31,0,4.2,0.29,5.68,0.85 c1.48,0.57,2.69,1.31,3.62,2.22c0.94,0.91,1.68,1.87,2.21,2.87c0.54,1.01,0.97,2.18,1.3,3.52c0.64,2.55,0.96,5.22,0.96,7.99 c0,6.21-1.05,10.76-3.16,13.64c-2.1,2.88-5.72,4.32-10.87,4.32c-2.88,0-5.21-0.46-6.99-1.38c-1.78-0.92-3.23-2.27-4.37-4.04 c-0.82-1.26-1.47-2.98-1.93-5.17C64.06,22.63,63.83,20.22,63.83,17.57L63.83,17.57z M73.26,17.58c0,4.36,0.38,7.34,1.16,8.94 c0.77,1.6,1.89,2.39,3.36,2.39c0.97,0,1.8-0.34,2.51-1.01c0.71-0.68,1.23-1.76,1.56-3.22c0.34-1.47,0.5-3.75,0.5-6.85 c0-4.55-0.38-7.6-1.16-9.17c-0.77-1.56-1.93-2.35-3.47-2.35c-1.58,0-2.71,0.8-3.41,2.39C73.61,10.31,73.26,13.27,73.26,17.58 L73.26,17.58z"/><path d="M95.97,7.95c0-2.74,0.49-4.66,1.48-5.75c0.99-1.09,2.49-1.64,4.51-1.64c0.97,0,1.77,0.12,2.39,0.36 c0.62,0.24,1.13,0.55,1.52,0.93c0.4,0.38,0.7,0.79,0.93,1.21c0.23,0.42,0.41,0.92,0.55,1.48c0.27,1.07,0.4,2.2,0.4,3.36 c0,2.62-0.44,4.53-1.33,5.74c-0.88,1.21-2.41,1.82-4.57,1.82c-1.21,0-2.19-0.19-2.94-0.58c-0.75-0.39-1.36-0.95-1.84-1.7 c-0.35-0.53-0.62-1.26-0.81-2.18C96.06,10.09,95.97,9.07,95.97,7.95L95.97,7.95z M99.94,7.96c0,1.83,0.16,3.09,0.49,3.76 c0.33,0.67,0.8,1.01,1.41,1.01c0.41,0,0.76-0.14,1.06-0.43c0.3-0.29,0.52-0.74,0.66-1.35c0.14-0.62,0.21-1.58,0.21-2.88 c0-1.91-0.16-3.2-0.49-3.86c-0.33-0.66-0.81-0.99-1.46-0.99c-0.67,0-1.14,0.34-1.44,1.01C100.08,4.9,99.94,6.14,99.94,7.96 L99.94,7.96z"/></g></svg>